# xmcd
#
# Track frame offsets: 
#        150
#        12828
#        30572
#        47867
#        61925
#        79705
#        94276
#        112035
#        128857
#        146298
#        159932
#        176960
#        195144
#        208826
#        228834
#        241594
#
# Disc length: 3401 seconds
#
# Revision: 2
# Processed by: cddbd v1.5.2PL0 Copyright (c) Steve Scherf et al.
# Submitted via: ExactAudioCopy v1.3
#
DISCID=c90d4710
DTITLE=Third Coast - Three years after
DYEAR=1996
DGENRE=Country
TTITLE0=Tropical depression
TTITLE1=Jeder Weg führt zu Dir
TTITLE2=Too many tears
TTITLE3=Up to my ears in tears
TTITLE4=Say bye bye to my baby
TTITLE5=Just a heartbeat or two away
TTITLE6=Alabama moon
TTITLE7=Orange blossom special
TTITLE8=Lean on me
TTITLE9=Auf seiner Harley
TTITLE10=Calling Horst the coastguard
TTITLE11=Pocket full of gold
TTITLE12=Cleoptra Queen of denial
TTITLE13=Das ideale Team
TTITLE14=Climb
TTITLE15=Der letzte Flug
EXTD=The first and only one by Third Coast.
EXTT0=
EXTT1=
EXTT2=
EXTT3=
EXTT4=
EXTT5=
EXTT6=
EXTT7=
EXTT8=
EXTT9=
EXTT10=
EXTT11=
EXTT12=
EXTT13=
EXTT14=
EXTT15=
PLAYORDER=
